<?xml version="1.0" standalone="no"?>
<!DOCTYPE svg PUBLIC "-//W3C//DTD SVG 20010904//EN"
 "http://www.w3.org/TR/2001/REC-SVG-20010904/DTD/svg10.dtd">
<svg version="1.0" xmlns="http://www.w3.org/2000/svg"
 width="574.000000pt" height="574.000000pt" viewBox="0 0 574.000000 574.000000"
 preserveAspectRatio="xMidYMid meet">
<metadata>
Created by potrace 1.14, written by Peter Selinger 2001-2017
</metadata>
<g transform="translate(0.000000,574.000000) scale(0.100000,-0.100000)"
fill="#000000" stroke="none">
<path d="M2785 5493 c-75 -13 -234 -76 -243 -95 -2 -5 -8 -8 -14 -8 -5 0 -48
-22 -95 -50 -47 -27 -86 -50 -88 -50 -2 0 -33 -18 -69 -40 -36 -22 -70 -40
-76 -40 -5 0 -10 -4 -10 -10 0 -5 -11 -12 -25 -16 -14 -3 -25 -10 -25 -15 0
-5 -4 -9 -10 -9 -5 0 -41 -20 -79 -44 -58 -38 -69 -49 -73 -78 -12 -81 4
-2548 17 -2608 3 -14 8 -38 11 -55 55 -303 218 -508 476 -596 87 -30 113 -33
273 -33 147 0 260 8 316 24 18 5 35 8 37 5 3 -2 12 0 22 5 9 5 28 11 41 14 13
2 67 18 119 34 84 27 96 29 107 15 9 -11 11 -83 9 -262 l-2 -246 -28 -54 c-50
-101 -122 -149 -276 -185 -58 -13 -127 -27 -155 -31 -27 -4 -61 -9 -75 -11
-98 -16 -325 -22 -415 -11 -104 14 -244 41 -275 54 -8 3 -24 8 -35 10 -81 15
-288 108 -397 178 -147 95 -296 237 -392 374 -56 80 -150 257 -181 342 -33 90
-77 267 -90 352 -3 27 -8 57 -10 68 -13 67 -22 605 -15 867 2 51 0 95 -2 98
-3 3 -3 19 1 37 3 18 6 275 6 572 0 504 -1 540 -17 537 -9 -1 -81 -39 -159
-82 -78 -44 -144 -80 -147 -80 -12 0 -139 -97 -169 -129 -19 -20 -46 -61 -61
-91 l-27 -55 -3 -675 c-1 -371 -2 -691 -1 -710 1 -19 1 -69 0 -110 -1 -116 -1
-152 2 -193 1 -20 -1 -37 -5 -37 -4 0 -5 -6 -2 -14 3 -8 7 -169 8 -357 2 -264
6 -353 16 -384 26 -74 88 -150 165 -202 23 -16 411 -242 641 -373 16 -10 90
-52 164 -95 74 -43 149 -86 167 -96 18 -11 48 -27 65 -38 18 -10 71 -40 118
-67 47 -26 87 -51 90 -54 3 -3 23 -14 45 -25 22 -11 42 -23 43 -27 2 -5 8 -8
13 -8 5 0 43 -20 83 -45 41 -25 79 -45 85 -45 6 0 11 -4 11 -10 0 -5 4 -10 8
-10 5 0 90 -47 191 -105 253 -145 300 -166 386 -172 103 -8 163 9 309 88 171
92 309 171 328 186 8 7 18 10 21 6 4 -3 7 -2 7 4 0 6 12 16 28 22 15 7 36 17
47 24 11 7 63 37 115 67 52 30 104 60 115 67 11 7 27 16 35 20 8 4 64 35 123
70 60 35 127 74 150 87 23 13 62 35 87 50 25 15 59 33 75 41 17 8 41 23 55 35
l25 20 -35 1 c-272 9 -334 16 -394 45 -69 33 -152 113 -177 172 -11 25 -23 81
-28 125 -8 92 -12 702 -14 2442 l-2 1260 -64 38 c-35 20 -67 37 -72 37 -5 0
-9 3 -9 8 0 4 -10 12 -23 18 -44 21 -122 67 -138 80 -8 8 -18 14 -22 14 -3 0
-30 14 -59 31 -98 58 -123 72 -218 119 -126 63 -196 83 -255 73z"/>
<path d="M4589 4478 c-6 -195 -9 -500 -13 -1303 -4 -755 -3 -946 9 -1017 38
-247 128 -406 291 -519 54 -37 150 -79 187 -82 41 -3 66 41 75 130 3 37 6 455
5 928 -2 1441 -2 1452 -20 1499 -19 46 -70 127 -89 139 -7 4 -20 14 -28 22 -8
8 -19 15 -24 15 -6 0 -12 4 -14 8 -4 10 -151 102 -163 102 -5 0 -16 6 -24 14
-9 7 -55 35 -103 60 l-88 47 -1 -43z"/>
</g>
</svg>
