<svg class="img-fluid" id="outputsvg" xmlns="http://www.w3.org/2000/svg" style="transform: none; transform-origin: 50% 50%; cursor: move; max-height: 471.88px; transition: none 0s ease 0s;" width="574" height="556" viewBox="0 0 5740 5560"><g id="l6ssbrNBNYKrEBkjk337Az" fill="rgb(82,176,201)" style="transform: none;"><g style="transform: none;"><path id="p180v74Qvd" d="M2670 5387 c-30 -13 -109 -54 -175 -92 -66 -37 -133 -76 -150 -85 -89 -51 -679 -392 -1005 -580 -522 -302 -505 -292 -609 -352 -145 -81 -207 -153 -240 -278 -9 -34 -11 -338 -9 -1245 l3 -1200 27 -58 c40 -86 113 -151 258 -231 69 -38 160 -89 203 -113 42 -24 82 -43 88 -43 8 0 9 218 3 768 -14 1258 -11 1324 63 1611 37 142 49 175 113 306 76 157 159 271 283 392 248 240 561 379 957 423 209 24 626 -32 762 -101 61 -31 114 -85 139 -142 22 -49 24 -65 27 -306 2 -160 0 -257 -6 -263 -7 -7 -36 -2 -89 16 -190 63 -320 87 -488 93 -210 7 -305 -9 -430 -71 -103 -51 -186 -121 -249 -209 -87 -124 -123 -225 -155 -437 -6 -38 -12 -585 -15 -1333 -6 -1197 -5 -1268 12 -1283 20 -19 480 -287 598 -349 45 -24 114 -50 156 -60 142 -31 200 -6 778 337 l125 74 2 1650 c2 2065 3 2080 33 2159 33 84 112 162 203 198 60 24 81 27 195 28 70 0 147 4 172 8 l45 7 -33 20 c-91 53 -385 222 -532 306 -91 52 -230 133 -310 178 -489 281 -486 280 -614 280 -61 0 -94 -6 -136 -23z"></path><path id="poC87hnfw" d="M5023 4084 c-276 -97 -430 -337 -449 -699 -9 -166 7 -2255 16 -2255 5 0 97 51 206 113 225 128 279 174 317 271 l25 61 7 1175 c6 1199 5 1239 -31 1316 -18 38 -29 40 -91 18z"></path></g></g><g id="l2JLpCnXPKXeezsqg4CIfbt" fill="rgb(82,176,201)" style="transform: none;"><g style="transform: none;"></g></g></svg>